<?xml version="1.0" ?><svg id="Layer_1" style="enable-background:new 0 0 32 32;" version="1.1" viewBox="0 0 32 32" xml:space="preserve" xmlns="http://www.w3.org/2000/svg" xmlns:xlink="http://www.w3.org/1999/xlink"><style type="text/css">
	.st0{fill:#222A30;}
	.st1{fill:#868687;}
	.st2{fill-rule:evenodd;clip-rule:evenodd;fill:#222A30;stroke:#222A30;stroke-width:0.776;}
	.st3{fill-rule:evenodd;clip-rule:evenodd;fill:#222A30;fill-opacity:0;stroke:#222A30;stroke-width:0.776;}
	.st4{fill:none;stroke:#222A30;stroke-width:1.5556;stroke-opacity:0.5;}
	.st5{fill:none;stroke:#222A30;stroke-width:1.5556;}
	.st6{fill:#070707;}
</style><path class="st0" d="M23.8,2H8.2C6.5,2,5.1,3.4,5.1,5.1v24.6c0,0.2,0.2,0.3,0.4,0.3l10.4-4.5  c0.1,0,0.2,0,0.2,0L26.6,30c0.2,0.1,0.4-0.1,0.4-0.3V5.1C26.9,3.4,25.5,2,23.8,2z M23.4,25.3l-7.3-3.2c-0.1,0-0.2,0-0.2,0l-7.3,3.2  c-0.2,0.1-0.4-0.1-0.4-0.3V5.4c0-0.2,0.1-0.3,0.3-0.3h15.1c0.2,0,0.3,0.1,0.3,0.3V25C23.8,25.2,23.6,25.4,23.4,25.3z" id="bookmark_x5F_outline"/></svg>