<?xml version="1.0" encoding="UTF-8" ?>
<!DOCTYPE svg PUBLIC "-//W3C//DTD SVG 1.1//EN" "http://www.w3.org/Graphics/SVG/1.1/DTD/svg11.dtd">
<svg width="366pt" height="370pt" viewBox="0 0 366 370" version="1.1" xmlns="http://www.w3.org/2000/svg">
<g id="#e6d3f5ff">
<path fill="#e6d3f5" opacity="1.00" d=" M 40.00 149.00 C 64.21 149.13 88.43 148.73 112.63 149.21 C 112.32 156.09 112.26 162.99 112.58 169.87 C 115.59 188.16 125.33 205.74 140.69 216.45 C 150.21 223.32 161.43 227.76 173.04 229.43 C 178.67 229.64 184.32 229.66 189.96 229.43 C 208.55 226.70 226.51 216.87 237.36 201.30 C 244.27 191.75 248.72 180.50 250.46 168.88 C 250.71 162.32 250.68 155.76 250.36 149.21 C 275.57 148.73 300.79 149.13 326.00 149.00 C 326.00 156.00 326.00 163.00 326.00 170.00 C 322.41 170.09 318.80 169.76 315.23 170.16 C 312.94 171.03 310.50 171.00 308.10 171.07 C 293.44 173.83 279.07 179.81 268.16 190.17 C 265.17 192.10 262.50 194.56 260.58 197.57 C 257.52 201.22 254.57 204.98 251.99 209.00 C 249.46 212.74 247.26 216.79 243.76 219.76 C 237.00 226.82 229.81 233.80 220.67 237.67 C 212.51 242.32 203.35 245.09 194.03 246.03 C 183.40 248.22 172.38 246.77 161.98 244.01 C 148.70 240.74 136.88 233.26 126.74 224.28 C 118.88 216.87 114.07 207.03 107.25 198.76 C 102.63 194.39 98.58 189.32 93.29 185.71 C 88.78 181.86 83.19 179.73 78.01 176.99 C 72.35 173.94 65.94 172.82 59.79 171.16 C 57.10 170.90 54.34 171.18 51.77 170.16 C 47.86 169.75 43.92 170.11 40.01 170.00 C 40.00 163.00 40.00 156.00 40.00 149.00 Z" />
<path fill="#e6d3f5" opacity="1.00" d=" M 40.20 175.20 C 40.86 175.87 40.86 175.87 40.20 175.20 Z" />
</g>
</svg>
