<svg version="1.1" xmlns="http://www.w3.org/2000/svg" xmlns:xlink="http://www.w3.org/1999/xlink" width="64px" height="64px" viewBox="0,0,256,256"><defs><linearGradient x1="32" y1="11.167" x2="32" y2="53.366" gradientUnits="userSpaceOnUse" id="color-1"><stop offset="0" stop-color="#1a6dff"></stop><stop offset="1" stop-color="#ff228f"></stop></linearGradient><linearGradient x1="32" y1="11.167" x2="32" y2="53.366" gradientUnits="userSpaceOnUse" id="color-2"><stop offset="0" stop-color="#1a6dff"></stop><stop offset="1" stop-color="#ff228f"></stop></linearGradient><linearGradient x1="17" y1="11.167" x2="17" y2="53.366" gradientUnits="userSpaceOnUse" id="color-3"><stop offset="0" stop-color="#1a6dff"></stop><stop offset="1" stop-color="#ff228f"></stop></linearGradient><linearGradient x1="15" y1="11.167" x2="15" y2="53.366" gradientUnits="userSpaceOnUse" id="color-4"><stop offset="0" stop-color="#1a6dff"></stop><stop offset="1" stop-color="#ff228f"></stop></linearGradient><linearGradient x1="49" y1="11.167" x2="49" y2="53.366" gradientUnits="userSpaceOnUse" id="color-5"><stop offset="0" stop-color="#1a6dff"></stop><stop offset="1" stop-color="#ff228f"></stop></linearGradient><linearGradient x1="53" y1="11.167" x2="53" y2="53.366" gradientUnits="userSpaceOnUse" id="color-6"><stop offset="0" stop-color="#1a6dff"></stop><stop offset="1" stop-color="#ff228f"></stop></linearGradient><linearGradient x1="41" y1="11.167" x2="41" y2="53.366" gradientUnits="userSpaceOnUse" id="color-7"><stop offset="0" stop-color="#1a6dff"></stop><stop offset="1" stop-color="#ff228f"></stop></linearGradient><linearGradient x1="45" y1="11.167" x2="45" y2="53.366" gradientUnits="userSpaceOnUse" id="color-8"><stop offset="0" stop-color="#1a6dff"></stop><stop offset="1" stop-color="#ff228f"></stop></linearGradient><linearGradient x1="32" y1="27.333" x2="32" y2="32.667" gradientUnits="userSpaceOnUse" id="color-9"><stop offset="0" stop-color="#6dc7ff"></stop><stop offset="1" stop-color="#e6abff"></stop></linearGradient></defs><g fill-opacity="0" fill="#dddddd" fill-rule="nonzero" stroke="none" stroke-width="1" stroke-linecap="butt" stroke-linejoin="miter" stroke-miterlimit="10" stroke-dasharray="" stroke-dashoffset="0" font-family="none" font-weight="none" font-size="none" text-anchor="none" style="mix-blend-mode: normal"><path d="M0,256v-256h256v256z" id="bgRectangle"></path></g><g fill-opacity="0.18039" fill="#dddddd" fill-rule="nonzero" stroke-opacity="0.18039" stroke="#dddddd" stroke-width="36" stroke-linecap="butt" stroke-linejoin="round" stroke-miterlimit="10" stroke-dasharray="" stroke-dashoffset="0" font-family="none" font-weight="none" font-size="none" text-anchor="none" style="mix-blend-mode: normal"></g><g fill="none" fill-rule="nonzero" stroke="none" stroke-width="1" stroke-linecap="butt" stroke-linejoin="miter" stroke-miterlimit="10" stroke-dasharray="" stroke-dashoffset="0" font-family="none" font-weight="none" font-size="none" text-anchor="none" style="mix-blend-mode: normal"><g transform="scale(4,4)"><path d="M57.471,18.705l-1.021,-2.041l-0.556,-1.111l-1.448,-2.896c-0.51,-1.022 -1.538,-1.657 -2.68,-1.657h-39.532c-1.143,0 -2.17,0.635 -2.681,1.656l-2.003,4.008v0.001l-1.02,2.041c-0.347,0.693 -0.53,1.469 -0.53,2.241v27.053c0,2.757 2.243,5 5,5h42c2.757,0 5,-2.243 5,-5v-27.053c0,-0.772 -0.183,-1.548 -0.529,-2.242zM52.657,13.551l1.449,2.896v0l0.557,1.114c0.221,0.448 0.042,0.825 -0.045,0.966c-0.089,0.143 -0.347,0.473 -0.848,0.473h-1.77v-5.967c0.282,0.067 0.523,0.25 0.657,0.518zM14,13h36v6h-36zM11.343,13.551c0.134,-0.268 0.375,-0.451 0.657,-0.518v5.967h-1.77c-0.501,0 -0.76,-0.33 -0.848,-0.473c-0.088,-0.141 -0.267,-0.519 -0.045,-0.967l0.556,-1.113v0zM56,48c0,1.654 -1.346,3 -3,3h-42c-1.654,0 -3,-1.346 -3,-3v-27.053c0,-0.277 0.051,-0.55 0.127,-0.817c0.553,0.55 1.298,0.87 2.103,0.87h43.54c0.805,0 1.55,-0.32 2.104,-0.87c0.075,0.267 0.126,0.54 0.126,0.817z" fill="url(#color-1)"></path><path d="M40,27h-16c-1.103,0 -2,0.897 -2,2v2c0,1.103 0.897,2 2,2h16c1.103,0 2,-0.897 2,-2v-2c0,-1.103 -0.897,-2 -2,-2zM24,31v-2h16l0.002,2z" fill="url(#color-2)"></path><path d="M10,47h14v2h-14z" fill="url(#color-3)"></path><path d="M10,43h10v2h-10z" fill="url(#color-4)"></path><path d="M48,45h2v4h-2z" fill="url(#color-5)"></path><path d="M52,45h2v4h-2z" fill="url(#color-6)"></path><path d="M40,45h2v4h-2z" fill="url(#color-7)"></path><path d="M44,45h2v4h-2z" fill="url(#color-8)"></path><path d="M24,29h16v2h-16z" fill="url(#color-9)"></path></g></g></svg>