<?xml version="1.0" encoding="utf-8"?>
<svg width="401" height="198" fill="none" xmlns="http://www.w3.org/2000/svg"><path fill-rule="evenodd" clip-rule="evenodd" d="M348.369 18.749c-.224 0-.447 0-.671-.224-.67-.224-1.117-.896-.894-1.569.019-.037.057-.146.116-.316.644-1.86 3.839-11.075 12.849-15.59 2.236-1.12 4.694-1.344 7.153-.672 1.832.5 3.416 1.499 4.659 2.81a26.508 26.508 0 0 1 6.742-1.466c.67 0 1.117.448 1.341.896 0 .448-.447 1.12-.894 1.12-2.056.138-4.018.584-5.839 1.209 1.165 1.955 1.334 4.283.697 6.409-.67 2.24-2.235 4.032-4.247 5.152-.894 1.12-8.047 5.825-21.012 2.24zm20.822-14.596c-5.87 2.662-9.692 6.566-10.262 7.148a4.737 4.737 0 0 0-.054.055c-.447.448-.223.896.224 1.344 0 0 .223 0 .67.224.447.224.894 0 1.118-.224 0-.158 3.878-4.202 9.683-6.817.835 1.537 1.034 3.275.6 4.8-.448 1.569-1.565 2.913-3.13 3.81 0 .223-.224.223-.224.223s-6.035 4.705-18.106 1.792c1.118-2.688 4.247-9.633 11.4-13.218 1.565-.672 3.353-.896 5.142-.672a7.026 7.026 0 0 1 2.939 1.535zM80.797 56.163H78.56c-1.117 0-2.235.895-2.235 2.24 0 1.344.894 2.24 2.235 2.24h2.236c1.34 0 2.235-.896 2.235-2.24 0-1.345-.894-2.24-2.235-2.24zm-42.59 47.046a3.476 3.476 0 0 1 3.47-3.48 3.476 3.476 0 0 1 3.472 3.48 3.476 3.476 0 0 1-3.471 3.481 3.476 3.476 0 0 1-3.47-3.481zm3.47-5.48a5.475 5.475 0 0 0-5.47 5.48 5.476 5.476 0 0 0 5.47 5.481 5.476 5.476 0 0 0 5.472-5.481 5.475 5.475 0 0 0-5.471-5.48zm311.716 92.853a3.475 3.475 0 0 1 3.47-3.481 3.476 3.476 0 0 1 3.471 3.481 3.475 3.475 0 0 1-3.471 3.48 3.475 3.475 0 0 1-3.47-3.48zm3.47-5.481a5.476 5.476 0 0 0-5.47 5.481 5.475 5.475 0 0 0 5.47 5.48 5.475 5.475 0 0 0 5.471-5.48 5.476 5.476 0 0 0-5.471-5.481zM59.561 143.535c-9.389 0-16.989 7.617-16.989 16.802 0 1.344 1.118 2.465 2.459 2.465s2.459-1.121 2.459-2.465c0-6.721 5.365-12.098 12.07-12.098 6.707 0 12.072 5.377 12.072 12.098 0 6.721-5.365 12.098-12.071 12.098H18.43c-1.342 0-2.46 1.12-2.46 2.464 0 1.345 1.118 2.465 2.46 2.465h41.13c9.388 0 16.988-7.617 16.988-16.803-.223-9.633-7.823-17.026-16.988-17.026zM45.7 189.462c0 4.256 3.577 7.841 8.048 7.841 4.47 0 8.047-3.585 8.047-7.841 0-4.257-3.577-7.842-8.047-7.842H34.078c-.67 0-1.118.448-1.118 1.121 0 .672.447 1.12 1.118 1.12h19.67c3.13 0 5.813 2.464 5.813 5.601 0 3.136-2.683 5.6-5.812 5.6-3.13 0-5.812-2.464-5.812-5.6 0-.673-.447-1.121-1.118-1.121-.67 0-1.117.448-1.117 1.121zM2.56 172.659h6.706c1.341 0 2.236.896 2.236 2.24 0 1.345-.895 2.241-2.236 2.241H2.56c-1.341 0-2.235-.896-2.235-2.241 0-1.344 1.117-2.24 2.235-2.24zm327.48-64.969h2.235c1.342 0 2.236.896 2.236 2.24 0 1.344-.894 2.24-2.236 2.24h-2.235c-1.341 0-2.235-.896-2.235-2.24 0-1.344 1.117-2.24 2.235-2.24zM117.68 56.162H90.856c-1.118 0-2.236.896-2.236 2.24 0 1.345.894 2.24 2.236 2.24h26.824c1.341 0 2.235-.895 2.235-2.24 0-1.344-.894-2.24-2.235-2.24zm247.007 62.729h24.589c.671 0 1.118.448 1.118 1.12 0 .672-.447 1.121-1.118 1.121h-24.589c-.671 0-1.118-.449-1.118-1.121 0-.672.671-1.12 1.118-1.12zm2.012-23.523c0-9.185 7.6-16.803 16.989-16.803 9.164 0 16.988 7.842 16.988 17.027 0 9.185-7.6 16.802-16.988 16.802h-41.131c-1.341 0-2.459-1.12-2.459-2.464 0-1.344 1.118-2.464 2.459-2.464h41.131c6.706 0 12.07-5.377 12.07-12.098 0-6.721-5.364-12.098-12.07-12.098-6.707 0-12.071 5.377-12.071 12.098 0 1.344-1.118 2.464-2.459 2.464-1.342 0-2.459-1.12-2.459-2.464z" fill="#EEEEF0"/><path fill-rule="evenodd" clip-rule="evenodd" d="M243.978 34.465c0-9.858-8.048-17.923-17.883-17.923h-91.65c-9.835 0-17.883 8.065-17.883 17.923v120.024c0 9.858 8.048 17.923 17.883 17.923h91.65c9.612 0 17.659-7.841 17.883-17.475-1.565-.448-2.906-.896-4.471-1.568v1.12c0 7.393-6.035 13.442-13.412 13.442h-91.65c-7.376 0-13.412-6.049-13.412-13.442V34.465c0-7.393 6.036-13.442 13.412-13.442h91.65c7.377 0 13.412 6.049 13.412 13.442v24.641c.782-.224 1.509-.504 2.235-.784.727-.28 1.453-.56 2.236-.784V34.465zm-73.096 51.058c0-2.017-1.789-3.809-3.801-3.809-2.011 0-3.576 1.568-3.8 3.809v1.344c0 2.016 1.789 3.808 3.8 3.808 2.012 0 3.801-1.792 3.801-3.808v-1.344zm24.588-3.36c2.012 0 3.801 1.791 3.801 3.808v1.344c0 2.016-1.789 3.808-3.801 3.808-2.011 0-3.8-1.792-3.8-3.808V85.97c0-2.017 1.565-3.809 3.8-3.809zm2.459 30.02c-2.682-6.497-8.941-11.202-16.541-11.202-7.601 0-14.083 4.705-16.989 11.202h4.247a14.202 14.202 0 0 1 12.518-7.393 14.202 14.202 0 0 1 12.518 7.393h4.247zm146.475 49.59-30.848-30.916c4.247-7.169 6.93-15.683 6.93-24.644 0-26.66-21.683-48.615-48.284-48.615s-48.284 21.731-48.284 48.615 21.683 48.615 48.284 48.615c11.4 0 21.906-4.032 30.177-10.753l29.954 30.02c1.565 1.568 3.576 2.464 5.812 2.464 2.012 0 4.247-.896 5.812-2.464l.67-.672c2.906-3.361 2.906-8.513-.223-11.65zM229.73 105.989c0-23.523 19.001-42.566 42.472-42.566s42.472 19.043 42.472 42.566c0 23.523-19.001 42.566-42.472 42.566-23.471.224-42.472-19.043-42.472-42.566zm110.427 63.177-.671.672c-.894.896-2.459.896-3.353 0l-29.73-29.796a32.64 32.64 0 0 0 3.576-4.257l29.954 30.021a2.258 2.258 0 0 1 .224 3.36zM146.622 94.26c0-19.247 15.567-34.845 34.766-34.845 19.198 0 34.765 15.598 34.765 34.845 0 19.246-15.567 34.845-34.765 34.845-19.199 0-34.766-15.599-34.766-34.845zm34.766-36.845c-20.308 0-36.766 16.498-36.766 36.845 0 20.347 16.458 36.845 36.766 36.845 20.307 0 36.765-16.498 36.765-36.845 0-20.347-16.458-36.845-36.765-36.845z" fill="#D3D2D6"/></svg>
