<?xml version="1.0" encoding="UTF-8" ?>
<!DOCTYPE svg PUBLIC "-//W3C//DTD SVG 1.1//EN" "http://www.w3.org/Graphics/SVG/1.1/DTD/svg11.dtd">
<svg width="500pt" height="500pt" viewBox="0 0 500 500" version="1.1" xmlns="http://www.w3.org/2000/svg">
<g id="#fe3219ff">
<path fill="#fe3219" opacity="1.00" d=" M 0.00 0.00 L 500.00 0.00 L 500.00 497.94 C 474.00 497.40 448.00 498.04 422.00 497.84 C 397.67 497.50 373.33 497.99 349.00 497.84 C 324.00 497.50 299.00 498.00 274.00 497.85 C 248.33 497.49 222.67 498.01 197.00 497.83 C 172.67 497.50 148.33 498.01 124.00 497.84 C 97.00 497.50 70.00 498.04 43.00 497.81 C 28.66 497.54 14.33 497.77 0.00 497.94 L 0.00 0.00 M 151.31 138.14 C 149.66 139.18 147.97 140.37 147.20 142.25 C 143.61 150.29 142.70 159.27 143.23 167.99 C 143.28 205.00 143.31 242.00 143.26 279.00 C 143.32 287.79 142.73 296.59 143.53 305.36 C 144.03 305.50 145.01 305.77 145.50 305.90 C 185.00 305.86 224.50 305.87 264.00 305.89 C 267.26 305.83 270.55 306.11 273.81 305.69 C 277.22 304.36 280.22 302.17 283.42 300.42 C 301.24 290.27 318.90 279.87 336.68 269.66 C 341.96 266.49 347.45 262.91 350.23 257.17 C 354.21 250.16 353.54 240.82 348.50 234.50 C 343.95 227.80 336.27 224.50 329.55 220.45 C 281.12 192.55 232.77 164.51 184.35 136.56 C 179.06 133.53 173.24 130.92 166.99 131.22 C 161.07 131.07 155.32 133.85 151.31 138.14 M 155.38 330.37 C 152.85 336.16 149.42 341.64 147.87 347.81 C 149.47 347.80 151.07 347.80 152.67 347.79 C 153.53 346.55 154.38 345.31 155.24 344.08 C 158.11 343.82 161.00 343.80 163.88 343.96 C 164.89 345.29 165.91 346.63 166.97 347.94 C 168.48 347.87 170.00 347.82 171.53 347.80 C 169.37 340.99 165.78 334.69 162.59 328.32 C 160.13 327.40 156.18 327.19 155.38 330.37 M 173.66 328.04 C 173.60 329.48 173.52 330.92 173.43 332.36 C 176.12 332.76 178.83 333.03 181.54 333.27 C 181.48 338.14 181.46 343.01 181.61 347.87 C 183.49 347.83 185.37 347.79 187.25 347.76 C 187.37 342.89 187.35 338.02 187.33 333.16 C 189.93 332.91 192.54 332.74 195.15 332.61 C 195.20 331.14 195.25 329.66 195.31 328.20 C 188.11 327.59 180.87 327.77 173.66 328.04 M 207.30 328.33 C 198.43 330.05 198.06 344.87 206.60 347.34 C 209.98 348.17 213.53 347.91 216.98 347.72 C 220.53 347.40 224.34 344.79 224.50 340.95 C 224.74 337.07 225.17 332.04 221.35 329.66 C 217.14 327.26 211.92 327.51 207.30 328.33 M 231.54 328.15 C 231.56 334.69 231.57 341.22 231.53 347.76 C 233.52 347.78 235.51 347.80 237.50 347.81 C 237.47 344.64 237.48 341.48 237.72 338.32 C 239.70 340.00 241.05 342.47 243.31 343.79 C 247.03 344.53 248.34 339.92 250.60 337.82 C 250.63 341.12 250.65 344.44 250.82 347.75 C 252.77 347.78 254.74 347.82 256.70 347.84 C 256.72 341.20 256.72 334.56 256.70 327.92 C 254.88 327.92 253.01 327.69 251.24 328.16 C 248.59 330.60 247.21 334.10 244.69 336.66 C 244.38 336.62 243.77 336.54 243.46 336.49 C 241.29 333.93 239.93 330.77 237.59 328.34 C 235.68 327.44 233.54 328.04 231.54 328.15 M 264.28 328.06 C 264.28 334.65 264.26 341.24 264.29 347.83 C 266.19 347.82 268.09 347.80 269.99 347.77 C 270.19 345.53 270.30 343.28 270.40 341.04 C 273.83 340.79 277.28 340.77 280.72 340.73 C 280.72 339.19 280.73 337.65 280.76 336.12 C 277.25 335.84 273.73 335.82 270.21 335.78 C 270.23 335.11 270.26 333.77 270.28 333.10 C 274.76 332.67 279.26 332.82 283.76 332.75 C 283.75 331.19 283.75 329.64 283.77 328.09 C 277.29 327.68 270.77 327.72 264.28 328.06 M 290.44 328.05 C 290.46 334.62 290.47 341.19 290.44 347.76 C 297.04 347.90 303.65 347.90 310.25 347.77 C 310.25 346.19 310.26 344.61 310.27 343.04 C 305.73 342.68 301.17 342.80 296.62 342.79 C 296.36 337.89 296.47 332.98 296.54 328.07 C 294.51 327.96 292.47 327.95 290.44 328.05 M 316.76 328.06 C 316.62 334.62 316.52 341.19 316.83 347.74 C 318.78 347.78 320.74 347.82 322.70 347.85 C 322.73 341.20 322.72 334.55 322.70 327.91 C 320.71 327.90 318.73 327.96 316.76 328.06 M 329.09 328.63 C 331.67 331.70 334.29 334.74 336.69 337.95 C 334.16 341.07 331.60 344.16 329.09 347.29 C 330.38 347.65 331.68 347.86 333.02 347.90 C 336.50 348.22 338.02 344.40 340.23 342.41 C 342.01 344.09 343.60 345.97 345.51 347.52 C 347.35 348.19 349.39 347.68 351.31 347.71 C 349.52 344.30 346.57 341.74 344.41 338.60 C 344.40 338.26 344.38 337.58 344.37 337.24 C 346.55 334.16 349.46 331.61 351.26 328.24 C 349.50 328.05 347.75 327.89 346.00 327.75 C 344.09 329.64 342.19 331.54 340.17 333.32 C 338.45 331.49 336.89 329.47 334.86 327.98 C 332.91 327.48 330.95 328.12 329.09 328.63 M 209.60 364.82 C 209.67 365.59 209.82 367.13 209.89 367.90 C 236.13 367.67 262.40 367.75 288.63 367.76 C 288.64 367.09 288.65 365.76 288.66 365.09 C 284.13 364.52 279.55 364.75 275.00 364.73 C 253.20 364.78 231.40 364.61 209.60 364.82 Z" />
</g>
<g id="#ffffffff">
<path fill="#ffffff" opacity="1.00" d=" M 151.31 138.14 C 155.32 133.85 161.07 131.07 166.99 131.22 C 173.24 130.92 179.06 133.53 184.35 136.56 C 232.77 164.51 281.12 192.55 329.55 220.45 C 336.27 224.50 343.95 227.80 348.50 234.50 C 353.54 240.82 354.21 250.16 350.23 257.17 C 347.45 262.91 341.96 266.49 336.68 269.66 C 318.90 279.87 301.24 290.27 283.42 300.42 C 280.22 302.17 277.22 304.36 273.81 305.69 C 270.55 306.11 267.26 305.83 264.00 305.89 C 224.50 305.87 185.00 305.86 145.50 305.90 C 145.35 256.61 145.46 207.31 145.45 158.02 C 145.29 150.96 147.12 143.88 151.31 138.14 Z" />
</g>
<g id="#e33d27ff">
<path fill="#e33d27" opacity="1.00" d=" M 147.20 142.25 C 147.97 140.37 149.66 139.18 151.31 138.14 C 147.12 143.88 145.29 150.96 145.45 158.02 C 145.46 207.31 145.35 256.61 145.50 305.90 C 145.01 305.77 144.03 305.50 143.53 305.36 C 142.73 296.59 143.32 287.79 143.26 279.00 C 143.31 242.00 143.28 205.00 143.23 167.99 C 142.70 159.27 143.61 150.29 147.20 142.25 Z" />
</g>
<g id="#fffbf8ff">
<path fill="#fffbf8" opacity="1.00" d=" M 155.38 330.37 C 156.18 327.19 160.13 327.40 162.59 328.32 C 165.78 334.69 169.37 340.99 171.53 347.80 C 170.00 347.82 168.48 347.87 166.97 347.94 C 165.91 346.63 164.89 345.29 163.88 343.96 C 161.00 343.80 158.11 343.82 155.24 344.08 C 154.38 345.31 153.53 346.55 152.67 347.79 C 151.07 347.80 149.47 347.80 147.87 347.81 C 149.42 341.64 152.85 336.16 155.38 330.37 M 159.38 332.97 C 158.50 334.89 157.71 336.85 156.99 338.83 C 158.70 338.83 160.42 338.81 162.14 338.77 C 161.50 336.71 160.60 334.75 159.38 332.97 Z" />
<path fill="#fffbf8" opacity="1.00" d=" M 316.76 328.06 C 318.73 327.96 320.71 327.90 322.70 327.91 C 322.72 334.55 322.73 341.20 322.70 347.85 C 320.74 347.82 318.78 347.78 316.83 347.74 C 316.52 341.19 316.62 334.62 316.76 328.06 Z" />
</g>
<g id="#fffcfaff">
<path fill="#fffcfa" opacity="1.00" d=" M 173.66 328.04 C 180.87 327.77 188.11 327.59 195.31 328.20 C 195.25 329.66 195.20 331.14 195.15 332.61 C 192.54 332.74 189.93 332.91 187.33 333.16 C 187.35 338.02 187.37 342.89 187.25 347.76 C 185.37 347.79 183.49 347.83 181.61 347.87 C 181.46 343.01 181.48 338.14 181.54 333.27 C 178.83 333.03 176.12 332.76 173.43 332.36 C 173.52 330.92 173.60 329.48 173.66 328.04 Z" />
</g>
<g id="#fffbf9ff">
<path fill="#fffbf9" opacity="1.00" d=" M 207.30 328.33 C 211.92 327.51 217.14 327.26 221.35 329.66 C 225.17 332.04 224.74 337.07 224.50 340.95 C 224.34 344.79 220.53 347.40 216.98 347.72 C 213.53 347.91 209.98 348.17 206.60 347.34 C 198.06 344.87 198.43 330.05 207.30 328.33 M 209.40 333.49 C 205.82 334.10 206.06 339.02 207.50 341.46 C 210.07 343.16 213.49 343.10 216.35 342.25 C 219.56 341.31 218.68 337.20 218.29 334.70 C 215.78 332.77 212.34 332.93 209.40 333.49 Z" />
<path fill="#fffbf9" opacity="1.00" d=" M 231.54 328.15 C 233.54 328.04 235.68 327.44 237.59 328.34 C 239.93 330.77 241.29 333.93 243.46 336.49 C 243.77 336.54 244.38 336.62 244.69 336.66 C 247.21 334.10 248.59 330.60 251.24 328.16 C 253.01 327.69 254.88 327.92 256.70 327.92 C 256.72 334.56 256.72 341.20 256.70 347.84 C 254.74 347.82 252.77 347.78 250.82 347.75 C 250.65 344.44 250.63 341.12 250.60 337.82 C 248.34 339.92 247.03 344.53 243.31 343.79 C 241.05 342.47 239.70 340.00 237.72 338.32 C 237.48 341.48 237.47 344.64 237.50 347.81 C 235.51 347.80 233.52 347.78 231.53 347.76 C 231.57 341.22 231.56 334.69 231.54 328.15 Z" />
<path fill="#fffbf9" opacity="1.00" d=" M 264.28 328.06 C 270.77 327.72 277.29 327.68 283.77 328.09 C 283.75 329.64 283.75 331.19 283.76 332.75 C 279.26 332.82 274.76 332.67 270.28 333.10 C 270.26 333.77 270.23 335.11 270.21 335.78 C 273.73 335.82 277.25 335.84 280.76 336.12 C 280.73 337.65 280.72 339.19 280.72 340.73 C 277.28 340.77 273.83 340.79 270.40 341.04 C 270.30 343.28 270.19 345.53 269.99 347.77 C 268.09 347.80 266.19 347.82 264.29 347.83 C 264.26 341.24 264.28 334.65 264.28 328.06 Z" />
<path fill="#fffbf9" opacity="1.00" d=" M 329.09 328.63 C 330.95 328.12 332.91 327.48 334.86 327.98 C 336.89 329.47 338.45 331.49 340.17 333.32 C 342.19 331.54 344.09 329.64 346.00 327.75 C 347.75 327.89 349.50 328.05 351.26 328.24 C 349.46 331.61 346.55 334.16 344.37 337.24 C 344.38 337.58 344.40 338.26 344.41 338.60 C 346.57 341.74 349.52 344.30 351.31 347.71 C 349.39 347.68 347.35 348.19 345.51 347.52 C 343.60 345.97 342.01 344.09 340.23 342.41 C 338.02 344.40 336.50 348.22 333.02 347.90 C 331.68 347.86 330.38 347.65 329.09 347.29 C 331.60 344.16 334.16 341.07 336.69 337.95 C 334.29 334.74 331.67 331.70 329.09 328.63 Z" />
</g>
<g id="#fffaf7ff">
<path fill="#fffaf7" opacity="1.00" d=" M 290.44 328.05 C 292.47 327.95 294.51 327.96 296.54 328.07 C 296.47 332.98 296.36 337.89 296.62 342.79 C 301.17 342.80 305.73 342.68 310.27 343.04 C 310.26 344.61 310.25 346.19 310.25 347.77 C 303.65 347.90 297.04 347.90 290.44 347.76 C 290.47 341.19 290.46 334.62 290.44 328.05 Z" />
</g>
<g id="#da442eff">
<path fill="#da442e" opacity="1.00" d=" M 159.38 332.97 C 160.60 334.75 161.50 336.71 162.14 338.77 C 160.42 338.81 158.70 338.83 156.99 338.83 C 157.71 336.85 158.50 334.89 159.38 332.97 Z" />
</g>
<g id="#f82f1aff">
<path fill="#f82f1a" opacity="1.00" d=" M 209.40 333.49 C 212.34 332.93 215.78 332.77 218.29 334.70 C 218.68 337.20 219.56 341.31 216.35 342.25 C 213.49 343.10 210.07 343.16 207.50 341.46 C 206.06 339.02 205.82 334.10 209.40 333.49 Z" />
</g>
<g id="#fff0e5ff">
<path fill="#fff0e5" opacity="1.00" d=" M 209.60 364.82 C 231.40 364.61 253.20 364.78 275.00 364.73 C 279.55 364.75 284.13 364.52 288.66 365.09 C 288.65 365.76 288.64 367.09 288.63 367.76 C 262.40 367.75 236.13 367.67 209.89 367.90 C 209.82 367.13 209.67 365.59 209.60 364.82 Z" />
</g>
<g id="#c54738ff">
<path fill="#c54738" opacity="1.00" d=" M 0.00 497.94 C 14.33 497.77 28.66 497.54 43.00 497.81 C 70.00 498.04 97.00 497.50 124.00 497.84 C 148.33 498.01 172.67 497.50 197.00 497.83 C 222.67 498.01 248.33 497.49 274.00 497.85 C 299.00 498.00 324.00 497.50 349.00 497.84 C 373.33 497.99 397.67 497.50 422.00 497.84 C 448.00 498.04 474.00 497.40 500.00 497.94 L 500.00 498.99 C 333.33 499.02 166.67 499.01 0.00 498.99 L 0.00 497.94 Z" />
</g>
<g id="#ffbfb3ff">
<path fill="#ffbfb3" opacity="1.00" d=" M 0.00 498.99 C 166.67 499.01 333.33 499.02 500.00 498.99 L 500.00 500.00 L 0.00 500.00 L 0.00 498.99 Z" />
</g>
</svg>
